<svg width="145" height="121" viewBox="0 0 145 121" fill="none" xmlns="http://www.w3.org/2000/svg">
<path d="M155.934 79.5819C178.673 141.748 117.774 151.871 81.8414 146.595C42.6442 140.839 -5.62725 124.261 28.9524 64.4636C63.5321 4.66611 78.5773 9.30633 101.507 12.6735C124.437 16.0407 133.196 17.416 155.934 79.5819Z" fill="#F6A94C"/>
<path d="M76.6074 22.2671C76.6855 23.9161 77.5615 27.2964 80.4411 27.6258C83.3207 27.9551 87.0433 25.518 88.5446 24.2584" stroke="white" stroke-width="4.52772" stroke-linecap="round"/>
<path d="M89.1035 24.1021C89.1816 25.7511 90.0576 29.1314 92.9372 29.4607C95.8168 29.79 99.5393 27.353 101.041 26.0933" stroke="white" stroke-width="4.52772" stroke-linecap="round"/>
<rect x="54.1172" y="31.549" width="31.694" height="31.694" rx="15.847" transform="rotate(8.35397 54.1172 31.549)" fill="white"/>
<circle cx="67.4945" cy="49.5303" r="12.4512" transform="rotate(8.35397 67.4945 49.5303)" fill="#232323"/>
<rect x="93.3164" y="37.3054" width="31.694" height="31.694" rx="15.847" transform="rotate(8.35397 93.3164 37.3054)" fill="white"/>
<circle cx="106.694" cy="55.2866" r="12.4512" transform="rotate(8.35397 106.694 55.2866)" fill="#232323"/>
<ellipse cx="84.5601" cy="65.7653" rx="3.39579" ry="2.26386" transform="rotate(8.35397 84.5601 65.7653)" fill="white"/>
<rect x="58.418" y="119.131" width="22.6386" height="39.6175" rx="11.3193" transform="rotate(8.35397 58.418 119.131)" fill="#F6A94C"/>
<rect x="99.832" y="81.5489" width="22.6386" height="30.2769" rx="11.3193" transform="rotate(-36.1822 99.832 81.5489)" fill="#C06D14"/>
<rect x="76.3223" y="96.5216" width="22.6386" height="35.7498" rx="11.3193" transform="rotate(133.088 76.3223 96.5216)" fill="#CD6F0A"/>
<path d="M85.6895 71.3788C84.6612 71.5727 82.6116 72.2477 82.639 73.3968C82.6663 74.5459 84.4977 75.7474 85.41 76.2045" stroke="white" stroke-width="2.87818" stroke-linecap="round"/>
<path d="M85.5547 76.4055C84.5265 76.5994 82.4769 77.2744 82.5042 78.4235C82.5316 79.5726 84.363 80.7741 85.2752 81.2312" stroke="white" stroke-width="2.87818" stroke-linecap="round"/>
</svg>
