<svg width="113" height="85" viewBox="0 0 113 85" fill="none" xmlns="http://www.w3.org/2000/svg">
<rect width="16.4322" height="25.9489" rx="8.21608" transform="matrix(0.919623 0.392803 0.392803 -0.919623 66.9922 35.1411)" fill="#CD6F0A"/>
<path d="M-4.20287 64.8401C-17.2807 111.073 27.3488 115.089 53.0701 109.316C81.1283 103.018 115.166 88.3942 86.8856 46.9927C58.6051 5.59106 47.9675 9.76778 31.5538 13.4518C15.14 17.1358 8.87491 18.6076 -4.20287 64.8401Z" fill="#F6A94C"/>
<path d="M50.0977 19.043C50.1308 20.2408 49.6805 22.7351 47.6142 23.1301C45.5478 23.525 42.7209 21.9635 41.5657 21.1333" stroke="white" stroke-width="3.28643" stroke-linecap="round"/>
<path d="M41.1523 21.0498C41.1855 22.2476 40.7352 24.7419 38.6689 25.1369C36.6025 25.5318 33.7756 23.9703 32.6204 23.1402" stroke="white" stroke-width="3.28643" stroke-linecap="round"/>
<rect width="23.005" height="23.005" rx="11.5025" transform="matrix(-0.975725 0.218998 0.218998 0.975725 66.8789 24.5371)" fill="white"/>
<circle cx="9.03769" cy="9.03769" r="9.03769" transform="matrix(-0.975725 0.218998 0.218998 0.975725 65.0117 27.4819)" fill="#232323"/>
<rect width="23.005" height="23.005" rx="11.5025" transform="matrix(-0.975725 0.218998 0.218998 0.975725 38.8203 30.8345)" fill="white"/>
<circle cx="9.03769" cy="9.03769" r="9.03769" transform="matrix(-0.975725 0.218998 0.218998 0.975725 36.9531 33.7793)" fill="#232323"/>
<ellipse cx="2.46483" cy="1.64322" rx="2.46483" ry="1.64322" transform="matrix(-0.975725 0.218998 0.218998 0.975725 48.7539 48.8154)" fill="white"/>
<rect width="16.4322" height="21.9764" rx="8.21608" transform="matrix(-0.457959 -0.888973 -0.888973 0.457959 13.0977 74.1934)" fill="#C06D14"/>
<path d="M49.3242 58.8608C46.6777 62.6693 38.5093 68.1471 27.0074 59.5902" stroke="white" stroke-width="3.28643" stroke-linecap="round"/>
</svg>
