<svg width="53" height="53" viewBox="0 0 53 53" fill="none" xmlns="http://www.w3.org/2000/svg">
<rect x="14.3555" y="17.7253" width="6.11671" height="9.65924" rx="3.05836" transform="rotate(144.299 14.3555 17.7253)" fill="#CD6F0A"/>
<path d="M42.6315 22.7467C51.1288 38.484 35.2397 43.5592 25.427 43.5458C14.7228 43.5313 1.17144 40.9762 8.09159 23.6429C15.0117 6.30966 19.2149 6.96522 25.4768 6.97374C31.7387 6.98226 34.1341 7.00935 42.6315 22.7467Z" fill="#F6A94C"/>
<path d="M19.1914 10.5068C19.2764 10.9446 19.6421 11.8144 20.4248 11.7904C21.2076 11.7665 22.1081 10.9701 22.4606 10.5749" stroke="white" stroke-width="1.22334" stroke-linecap="round"/>
<path d="M22.6055 10.5114C22.6905 10.9493 23.0562 11.819 23.8389 11.7951C24.6216 11.7712 25.5222 10.9748 25.8746 10.5796" stroke="white" stroke-width="1.22334" stroke-linecap="round"/>
<rect x="13.5391" y="13.8635" width="8.5634" height="8.5634" rx="4.2817" transform="rotate(0.0779788 13.5391 13.8635)" fill="white"/>
<circle cx="17.8166" cy="18.1511" r="3.36419" transform="rotate(0.0779788 17.8166 18.1511)" fill="#232323"/>
<rect x="24.2422" y="13.8781" width="8.5634" height="8.5634" rx="4.2817" transform="rotate(0.0779788 24.2422 13.8781)" fill="white"/>
<circle cx="28.5198" cy="18.1656" r="3.36419" transform="rotate(0.0779788 28.5198 18.1656)" fill="#232323"/>
<ellipse cx="23.0104" cy="21.8281" rx="0.917507" ry="0.611671" transform="rotate(0.0779788 23.0104 21.8281)" fill="white"/>
<rect x="18.0938" y="37.1133" width="6.11671" height="10.7042" rx="3.05836" transform="rotate(0.0779788 18.0938 37.1133)" fill="#F6A94C"/>
<rect x="27.2695" y="37.1257" width="6.11671" height="10.7042" rx="3.05836" transform="rotate(0.0779788 27.2695 37.1257)" fill="#F6A94C"/>
<rect x="37.1055" y="27.5467" width="6.11671" height="8.1805" rx="3.05836" transform="rotate(-75.3167 37.1055 27.5467)" fill="#C06D14"/>
<path d="M22.6992 24.9111C23.9693 26.0803 27.3808 27.4086 30.8663 23.3678" stroke="white" stroke-width="1.22334" stroke-linecap="round"/>
<path d="M5.00526 4.57572C5.86452 4.09025 7.71543 3.53899 9.97044 4.05569C11.0362 4.29973 11.8826 3.97604 12.4665 3.58812C12.7591 3.3938 12.9851 3.18355 13.1376 3.02231C13.2136 2.94189 13.2708 2.8733 13.309 2.82582C13.3281 2.80216 13.3428 2.78403 13.3521 2.77167L13.3643 2.75443L13.3652 2.75408C13.3952 2.71156 13.4471 2.68997 13.4982 2.69995C13.5493 2.71 13.5898 2.74975 13.6016 2.80046L14.3727 6.13192C14.3797 6.1623 14.3755 6.19433 14.3613 6.22208C14.0998 6.73125 13.5136 7.18763 12.7846 7.48653C12.0519 7.78691 11.156 7.93651 10.2524 7.81629C9.41681 7.70519 8.45489 8.06845 7.68574 8.47618C7.30445 8.67831 6.977 8.88812 6.74479 9.04718C6.62879 9.12664 6.5364 9.19337 6.4736 9.24006C6.44236 9.26329 6.41817 9.28126 6.4021 9.29362C6.39426 9.29965 6.38848 9.30458 6.38449 9.30769C6.38249 9.30925 6.38066 9.31087 6.37971 9.31161L6.3788 9.31196C6.34406 9.33952 6.29766 9.34789 6.25552 9.33413C6.21345 9.3203 6.18041 9.28669 6.16867 9.24402L4.94326 4.72499L4.93917 4.68159C4.94226 4.63841 4.96596 4.59799 5.00526 4.57572Z" fill="#F4902B" stroke="#F4902B" stroke-width="0.264244" stroke-linejoin="round"/>
<rect x="8.26562" y="13.4397" width="1.9195" height="10.2682" rx="0.959748" transform="rotate(165.081 8.26562 13.4397)" fill="#F6A94C"/>
</svg>
