<svg width="375" height="44" viewBox="0 0 375 44" fill="none" xmlns="http://www.w3.org/2000/svg">
<g clip-path="url(#clip0_7531_55964)">
<path opacity="0.35" d="M343.168 17.8328H355.764C356.96 17.8328 357.931 18.8031 357.931 19.9998V23.9031C357.93 25.0995 356.96 26.0691 355.764 26.0691H343.168C341.972 26.0691 341.001 25.0995 341.001 23.9031V19.9998C341.001 18.8031 341.971 17.8328 343.168 17.8328Z" stroke="#363533"/>
<path opacity="0.4" d="M359.246 20.321V23.581C359.901 23.3049 360.328 22.6626 360.328 21.951C360.328 21.2394 359.901 20.5971 359.246 20.321Z" fill="#363533"/>
<path d="M342.131 20.296C342.131 19.5596 342.728 18.9626 343.464 18.9626H355.467C356.204 18.9626 356.801 19.5596 356.801 20.296V23.6059C356.801 24.3422 356.204 24.9392 355.467 24.9392H343.464C342.728 24.9392 342.131 24.3422 342.131 23.6059V20.296Z" fill="#363533"/>
<path d="M328.375 24.1763C329.414 23.2973 330.937 23.2973 331.976 24.1763C332.028 24.2235 332.058 24.2905 332.06 24.3608C332.061 24.4313 332.034 24.4999 331.984 24.5493L330.356 26.1919C330.308 26.2402 330.243 26.2671 330.175 26.2671C330.107 26.2671 330.042 26.2402 329.995 26.1919L328.367 24.5493C328.316 24.4999 328.289 24.4313 328.291 24.3608C328.292 24.2905 328.322 24.2234 328.375 24.1763ZM326.203 21.9849C328.442 19.9019 331.91 19.9019 334.15 21.9849C334.2 22.0337 334.229 22.1011 334.23 22.1714C334.231 22.2416 334.203 22.309 334.154 22.3589L333.213 23.3101C333.116 23.4071 332.959 23.4094 332.86 23.3149C332.124 22.6489 331.168 22.2797 330.175 22.2798C329.184 22.2802 328.228 22.6494 327.493 23.3149C327.393 23.4094 327.236 23.4071 327.139 23.3101L326.199 22.3589C326.149 22.3091 326.122 22.2416 326.123 22.1714C326.123 22.1011 326.152 22.0337 326.203 21.9849ZM324.03 19.7993C327.465 16.5073 332.885 16.5075 336.32 19.7993C336.37 19.8482 336.397 19.9152 336.398 19.9849C336.398 20.0546 336.371 20.1219 336.322 20.1714L335.38 21.1226C335.283 21.22 335.125 21.2205 335.027 21.1245C333.718 19.8803 331.981 19.1871 330.175 19.187C328.369 19.187 326.632 19.8801 325.323 21.1245C325.224 21.2206 325.067 21.22 324.97 21.1226L324.028 20.1714C323.979 20.1219 323.951 20.0546 323.952 19.9849C323.952 19.9152 323.98 19.8482 324.03 19.7993Z" fill="#363533"/>
<path d="M307.63 23.0378C308.08 23.0378 308.445 23.4023 308.445 23.8523V25.4822C308.445 25.9323 308.08 26.2976 307.63 26.2976H306.815C306.365 26.2976 306 25.9323 306 25.4822V23.8523C306 23.4023 306.365 23.0378 306.815 23.0378H307.63ZM311.434 21.408C311.883 21.4082 312.248 21.7725 312.248 22.2224V25.4822C312.248 25.9321 311.884 26.2974 311.434 26.2976H310.618C310.168 26.2976 309.804 25.9323 309.804 25.4822V22.2224C309.804 21.7724 310.168 21.408 310.618 21.408H311.434ZM315.236 19.5056C315.686 19.5056 316.052 19.8709 316.052 20.321V25.4822C316.052 25.9323 315.686 26.2976 315.236 26.2976H314.422C313.972 26.2976 313.606 25.9323 313.606 25.4822V20.321C313.606 19.8709 313.972 19.5056 314.422 19.5056H315.236ZM319.04 17.6042C319.49 17.6044 319.854 17.9697 319.854 18.4197V25.4822C319.854 25.9322 319.49 26.2975 319.04 26.2976H318.225C317.775 26.2975 317.41 25.9322 317.41 25.4822V18.4197C317.41 17.9696 317.775 17.6043 318.225 17.6042H319.04Z" fill="#363533"/>
<path d="M27.3208 28.2563C30.0088 28.2563 31.6055 26.1543 31.6055 22.5947C31.6055 21.2544 31.3491 20.1265 30.8584 19.2549C30.1479 17.8999 28.9248 17.1675 27.3794 17.1675C25.0796 17.1675 23.4536 18.7129 23.4536 20.8809C23.4536 22.917 24.9185 24.3965 26.9326 24.3965C28.1704 24.3965 29.1738 23.8179 29.6719 22.8145H29.6938C29.6938 22.8145 29.7231 22.8145 29.7305 22.8145C29.7451 22.8145 29.7964 22.8145 29.7964 22.8145C29.7964 25.2314 28.8809 26.6743 27.3354 26.6743C26.4272 26.6743 25.7241 26.1763 25.4824 25.3779H23.6001C23.915 27.1138 25.3872 28.2563 27.3208 28.2563ZM27.3867 22.895C26.1709 22.895 25.3066 22.0308 25.3066 20.8223C25.3066 19.6431 26.2148 18.7422 27.394 18.7422C28.5732 18.7422 29.4814 19.6577 29.4814 20.8516C29.4814 22.0308 28.5952 22.895 27.3867 22.895Z" fill="#363533"/>
<path d="M34.6966 28.1538C35.3924 28.1538 35.8685 27.6558 35.8685 26.9966C35.8685 26.3301 35.3924 25.8394 34.6966 25.8394C34.0081 25.8394 33.5247 26.3301 33.5247 26.9966C33.5247 27.6558 34.0081 28.1538 34.6966 28.1538ZM34.6966 22.6606C35.3924 22.6606 35.8685 22.1699 35.8685 21.5107C35.8685 20.8442 35.3924 20.3535 34.6966 20.3535C34.0081 20.3535 33.5247 20.8442 33.5247 21.5107C33.5247 22.1699 34.0081 22.6606 34.6966 22.6606Z" fill="#363533"/>
<path d="M42.7242 28H44.5333V26.0298H45.9615V24.4331H44.5333V17.4312H41.8673C39.9996 20.2437 38.5128 22.5947 37.5606 24.3452V26.0298H42.7242V28ZM39.3111 24.3672C40.5416 22.1992 41.6402 20.4634 42.651 18.9692H42.7535V24.4771H39.3111V24.3672Z" fill="#363533"/>
<path d="M49.9901 28H51.8798V17.4312H49.9975L47.2362 19.3647V21.1812L49.8656 19.3354H49.9901V28Z" fill="#363533"/>
</g>
<defs>
<clipPath id="clip0_7531_55964">
<rect width="375" height="44" fill="white"/>
</clipPath>
</defs>
</svg>
