<svg width="60" height="58" viewBox="0 0 60 58" fill="none" xmlns="http://www.w3.org/2000/svg">
<g clip-path="url(#clip0_8674_6424)">
<path d="M77.2837 35.8176C98.678 75.3116 58.791 88.1119 34.1472 88.1119C7.26428 88.1119 -26.7776 81.7413 -9.45743 38.1865C7.86275 -5.36821 18.421 -3.73621 34.1472 -3.73621C49.8734 -3.73621 55.8895 -3.67638 77.2837 35.8176Z" fill="#8DB375"/>
<rect x="61.584" y="39.4121" width="14.6951" height="20.534" rx="7.34757" transform="rotate(38.031 61.584 39.4121)" fill="#7D946D"/>
<rect x="12.1953" y="57.6152" width="14.6951" height="20.6264" rx="7.34757" transform="rotate(144.221 12.1953 57.6152)" fill="#7D946D"/>
<rect x="5.11523" y="12.2256" width="20.5732" height="20.5732" rx="10.2866" fill="white"/>
<circle cx="15.4017" cy="22.512" r="8.08233" fill="#232323"/>
<rect x="30.8291" y="12.2256" width="20.5732" height="20.5732" rx="10.2866" fill="white"/>
<circle cx="41.1155" cy="22.512" r="8.08233" fill="#232323"/>
<ellipse cx="27.8898" cy="31.3289" rx="2.20427" ry="1.46951" fill="white"/>
<path d="M29.1436 38.7285C29.4799 39.746 30.617 41.7068 32.4749 41.4107C34.3328 41.1145 36.2355 38.9417 36.9546 37.8923" stroke="white" stroke-width="2.93903" stroke-linecap="round"/>
<path d="M37.2744 37.6973C37.6107 38.7147 38.7478 40.6756 40.6058 40.3794C42.4637 40.0833 44.3664 37.9105 45.0855 36.8611" stroke="white" stroke-width="2.93903" stroke-linecap="round"/>
</g>
<defs>
<clipPath id="clip0_8674_6424">
<path d="M0 29C0 12.9837 12.9837 0 29 0H31C47.0163 0 60 12.9837 60 29V29C60 45.0163 47.0163 58 31 58H29C12.9837 58 0 45.0163 0 29V29Z" fill="white"/>
</clipPath>
</defs>
</svg>
