<svg width="60" height="58" viewBox="0 0 60 58" fill="none" xmlns="http://www.w3.org/2000/svg">
<g clip-path="url(#clip0_8674_6391)">
<rect x="6.36328" y="25.395" width="14.3351" height="22.6373" rx="7.16755" transform="rotate(144.221 6.36328 25.395)" fill="#CD6F0A"/>
<path d="M72.642 37.0723C92.6066 73.9271 55.3851 85.872 32.3882 85.872C7.30172 85.872 -24.4653 79.9271 -8.30255 39.2829C7.86019 -1.36125 17.7129 0.161701 32.3882 0.161698C47.0635 0.161696 52.6775 0.217533 72.642 37.0723Z" fill="#F6A341"/>
<path d="M17.6763 8.46289C17.8769 9.4888 18.7367 11.526 20.571 11.4674C22.4054 11.4088 24.5134 9.5395 25.3381 8.61219" stroke="white" stroke-width="2.86702" stroke-linecap="round"/>
<path d="M25.6689 8.46289C25.8696 9.4888 26.7294 11.526 28.5637 11.4674C30.3981 11.4088 32.506 9.5395 33.3307 8.61219" stroke="white" stroke-width="2.86702" stroke-linecap="round"/>
<rect x="4.4375" y="16.3472" width="20.0691" height="20.0691" rx="10.0346" fill="white"/>
<circle cx="14.4722" cy="26.3819" r="7.88431" fill="#232323"/>
<rect x="29.5234" y="16.3472" width="20.0691" height="20.0691" rx="10.0346" fill="white"/>
<circle cx="39.5581" cy="26.3819" r="7.88431" fill="#232323"/>
<ellipse cx="26.6566" cy="34.9828" rx="2.15026" ry="1.43351" fill="white"/>
<rect x="59.7036" y="48.3398" width="14.3351" height="19.1718" rx="7.16755" transform="rotate(-75.3947 59.7036 48.3398)" fill="#C06D14"/>
<path d="M25.9385 42.209C28.9188 44.9452 36.9183 48.0473 45.0739 38.5662" stroke="white" stroke-width="2.86702" stroke-linecap="round"/>
</g>
<defs>
<clipPath id="clip0_8674_6391">
<path d="M0 29C0 12.9837 12.9837 0 29 0H31C47.0163 0 60 12.9837 60 29V29C60 45.0163 47.0163 58 31 58H29C12.9837 58 0 45.0163 0 29V29Z" fill="white"/>
</clipPath>
</defs>
</svg>
