<svg width="25" height="24" viewBox="0 0 25 24" fill="none" xmlns="http://www.w3.org/2000/svg">
<path d="M14.967 4.49929L13.746 3.45879C13.0282 2.84707 11.9718 2.84707 11.254 3.45879L10.0328 4.49932C9.72525 4.76146 9.34276 4.91981 8.93989 4.95196L7.34205 5.0794C6.40192 5.15442 5.65417 5.90099 5.57915 6.84112L5.45122 8.44024C5.41908 8.84311 5.26176 9.22541 4.99963 9.53301L3.95865 10.7542C3.34693 11.472 3.34721 12.5276 3.95894 13.2454L4.99898 14.4666C5.26111 14.7742 5.41995 15.1565 5.4521 15.5594L5.58003 17.1585C5.65505 18.0986 6.40064 18.8452 7.34077 18.9202L8.94038 19.0477C9.34325 19.0798 9.72555 19.2382 10.0332 19.5003L11.2539 20.5409C11.9717 21.1526 13.0282 21.1525 13.746 20.5407L14.9667 19.5002C15.2744 19.2381 15.6567 19.08 16.0595 19.0478L17.6591 18.9202C18.5993 18.8452 19.3449 18.0984 19.4199 17.1583L19.5478 15.5593C19.58 15.1564 19.7388 14.7738 20.0009 14.4662L21.041 13.2454C21.6527 12.5275 21.6526 11.4716 21.0409 10.7538L20.0008 9.53319C19.7387 9.22559 19.5797 8.8431 19.5475 8.44024L19.4204 6.84093C19.3453 5.9008 18.5986 5.15452 17.6585 5.0795L16.0594 4.95206C15.6566 4.91991 15.2746 4.76143 14.967 4.49929Z" fill="#00AAFF"/>
<path d="M15.5 9.99981L11.5 13.9998L9.49995 11.9998M13.746 3.45879L14.967 4.49929C15.2746 4.76143 15.6566 4.91991 16.0594 4.95206L17.6585 5.0795C18.5986 5.15452 19.3453 5.9008 19.4204 6.84093L19.5475 8.44024C19.5797 8.8431 19.7387 9.22559 20.0008 9.53319L21.0409 10.7538C21.6526 11.4716 21.6527 12.5275 21.041 13.2454L20.0009 14.4662C19.7388 14.7738 19.58 15.1564 19.5478 15.5593L19.4199 17.1583C19.3449 18.0984 18.5993 18.8452 17.6591 18.9202L16.0595 19.0478C15.6567 19.08 15.2744 19.2381 14.9667 19.5002L13.746 20.5407C13.0282 21.1525 11.9717 21.1526 11.2539 20.5409L10.0332 19.5003C9.72555 19.2382 9.34325 19.0798 8.94038 19.0477L7.34077 18.9202C6.40064 18.8452 5.65505 18.0986 5.58003 17.1585L5.4521 15.5594C5.41995 15.1565 5.26111 14.7742 4.99898 14.4666L3.95894 13.2454C3.34721 12.5276 3.34693 11.472 3.95865 10.7542L4.99963 9.53301C5.26176 9.22541 5.41908 8.84311 5.45122 8.44024L5.57915 6.84112C5.65417 5.90099 6.40192 5.15442 7.34205 5.0794L8.93989 4.95196C9.34276 4.91981 9.72525 4.76146 10.0328 4.49932L11.254 3.45879C11.9718 2.84707 13.0282 2.84707 13.746 3.45879Z" stroke="white" stroke-width="2" stroke-linecap="round" stroke-linejoin="round"/>
</svg>
