<svg width="24" height="24" viewBox="0 0 24 24" fill="none" xmlns="http://www.w3.org/2000/svg">
<path d="M8.7256 11.7C8.7256 11.5667 8.74627 11.4417 8.7876 11.325C8.82894 11.2083 8.89994 11.1 9.0006 11L13.6006 6.4C13.7839 6.21667 14.0173 6.125 14.3006 6.125C14.5839 6.125 14.8173 6.21667 15.0006 6.4C15.1839 6.58333 15.2756 6.81667 15.2756 7.1C15.2756 7.38333 15.1839 7.61667 15.0006 7.8L11.1006 11.7L15.0006 15.6C15.1839 15.7833 15.2756 16.0167 15.2756 16.3C15.2756 16.5833 15.1839 16.8167 15.0006 17C14.8173 17.1833 14.5839 17.275 14.3006 17.275C14.0173 17.275 13.7839 17.1833 13.6006 17L9.0006 12.4C8.9006 12.3 8.8296 12.1917 8.7876 12.075C8.7456 11.9583 8.72493 11.8333 8.7256 11.7Z" fill="#363533"/>
</svg>
