<svg width="25" height="24" viewBox="0 0 25 24" fill="none" xmlns="http://www.w3.org/2000/svg">
<path d="M15.4997 11.7C15.4997 11.8333 15.479 11.9583 15.4377 12.075C15.3964 12.1917 15.3254 12.3 15.2247 12.4L10.6247 17C10.4414 17.1833 10.208 17.275 9.92471 17.275C9.64137 17.275 9.40804 17.1833 9.22471 17C9.04137 16.8167 8.94971 16.5833 8.94971 16.3C8.94971 16.0167 9.04137 15.7833 9.22471 15.6L13.1247 11.7L9.22471 7.8C9.04137 7.61667 8.94971 7.38333 8.94971 7.1C8.94971 6.81667 9.04137 6.58333 9.22471 6.4C9.40804 6.21667 9.64137 6.125 9.92471 6.125C10.208 6.125 10.4414 6.21667 10.6247 6.4L15.2247 11C15.3247 11.1 15.3957 11.2083 15.4377 11.325C15.4797 11.4417 15.5004 11.5667 15.4997 11.7Z" fill="#363533"/>
</svg>
