<svg width="25" height="24" viewBox="0 0 25 24" fill="none" xmlns="http://www.w3.org/2000/svg">
<path d="M4.53027 13.25C4.53027 12.587 4.79367 11.9511 5.26251 11.4822C5.73135 11.0134 6.36723 10.75 7.03027 10.75H17.5303C18.1933 10.75 18.8292 11.0134 19.298 11.4822C19.7669 11.9511 20.0303 12.587 20.0303 13.25V21.25H4.53027V13.25Z" stroke="#363533" stroke-width="1.5" stroke-linecap="round" stroke-linejoin="round"/>
<path d="M4.53027 14.87L6.77927 16.32C7.26397 16.6326 7.82851 16.7989 8.40527 16.7989C8.98204 16.7989 9.54657 16.6326 10.0313 16.32L10.6543 15.92C11.139 15.6074 11.7035 15.4411 12.2803 15.4411C12.857 15.4411 13.4216 15.6074 13.9063 15.92L14.5293 16.32C15.014 16.6326 15.5785 16.7989 16.1553 16.7989C16.732 16.7989 17.2966 16.6326 17.7813 16.32L20.0303 14.87M21.5303 21.245H3.03027M12.2803 7.58V10.75M12.2803 2.75L13.6943 4.164C13.974 4.44368 14.1646 4.80005 14.2418 5.18802C14.319 5.576 14.2794 5.97817 14.1281 6.34365C13.9767 6.70914 13.7204 7.02153 13.3915 7.24132C13.0626 7.46111 12.6759 7.57843 12.2803 7.57843C11.8847 7.57843 11.498 7.46111 11.1691 7.24132C10.8402 7.02153 10.5838 6.70914 10.4325 6.34365C10.2811 5.97817 10.2415 5.576 10.3187 5.18802C10.396 4.80005 10.5865 4.44368 10.8663 4.164L12.2803 2.75Z" stroke="#363533" stroke-width="1.5" stroke-linecap="round" stroke-linejoin="round"/>
</svg>
