<svg width="25" height="24" viewBox="0 0 25 24" fill="none" xmlns="http://www.w3.org/2000/svg">
<path d="M10.1724 4.25722C9.86866 3.4979 9.13324 3 8.31543 3H5.56466C4.51822 3 3.66992 3.8481 3.66992 4.89453C3.66992 13.7892 10.8807 21 19.7754 21C20.8218 21 21.6699 20.1516 21.6699 19.1052L21.6704 16.354C21.6704 15.5361 21.1726 14.8009 20.4133 14.4971L17.7768 13.4429C17.0948 13.1701 16.3182 13.2929 15.7539 13.7632L15.0734 14.3307C14.2788 14.9929 13.1096 14.9402 12.3781 14.2088L10.4621 12.2911C9.73071 11.5596 9.67666 10.3913 10.3389 9.59668L10.9062 8.9163C11.3765 8.35195 11.5004 7.57516 11.2276 6.89309L10.1724 4.25722Z" stroke="#363533" stroke-width="2" stroke-linecap="round" stroke-linejoin="round"/>
</svg>
