<svg width="25" height="24" viewBox="0 0 25 24" fill="none" xmlns="http://www.w3.org/2000/svg">
<path d="M10.1589 7H6.87012C5.75001 7 5.18954 7 4.76172 7.21799C4.38539 7.40973 4.07966 7.71547 3.88791 8.0918C3.66992 8.51962 3.66992 9.08009 3.66992 10.2002V15.8002C3.66992 16.9203 3.66992 17.4796 3.88791 17.9074C4.07966 18.2837 4.38539 18.5905 4.76172 18.7822C5.18912 19 5.74892 19 6.86683 19H18.473C19.5909 19 20.1499 19 20.5773 18.7822C20.9536 18.5905 21.2604 18.2837 21.4521 17.9074C21.6699 17.48 21.6699 16.921 21.6699 15.8031V10.1969C21.6699 9.07899 21.6699 8.5192 21.4521 8.0918C21.2604 7.71547 20.9536 7.40973 20.5773 7.21799C20.1495 7 19.5902 7 18.4701 7H15.1807M10.1589 7H10.2207M10.1589 7C10.1714 7.00001 10.1846 7 10.1985 7L10.2207 7M10.1589 7C10.0528 6.99995 9.99332 6.99941 9.94629 6.99414C9.3587 6.92835 8.9557 6.36908 9.0791 5.79084C9.09058 5.73703 9.11328 5.66894 9.15822 5.53412L9.16016 5.52841C9.21148 5.37443 9.23715 5.29743 9.2655 5.22949C9.55578 4.53389 10.2131 4.06083 10.9648 4.00541C11.0383 4 11.1189 4 11.2812 4H14.0585C14.2208 4 14.3022 4 14.3756 4.00541C15.1273 4.06083 15.7839 4.53389 16.0742 5.22949C16.1026 5.29743 16.1284 5.37434 16.1797 5.52832C16.2259 5.66699 16.249 5.73636 16.2607 5.79093C16.3841 6.36917 15.9817 6.92835 15.3941 6.99414C15.3471 6.99941 15.287 6.99995 15.1807 7M10.2207 7H15.1189M15.1189 7H15.1807M15.1189 7L15.1411 7C15.155 7 15.1682 7.00001 15.1807 7M12.6699 16C11.0131 16 9.66992 14.6569 9.66992 13C9.66992 11.3431 11.0131 10 12.6699 10C14.3268 10 15.6699 11.3431 15.6699 13C15.6699 14.6569 14.3268 16 12.6699 16Z" stroke="#363533" stroke-width="2" stroke-linecap="round" stroke-linejoin="round"/>
<path d="M10.1589 7H6.86992C5.74992 7 5.18992 7 4.76192 7.218C4.38561 7.40974 4.07967 7.71569 3.88792 8.092C3.66992 8.52 3.66992 9.08 3.66992 10.2V15.8C3.66992 16.92 3.66992 17.48 3.88792 17.907C4.07992 18.284 4.38492 18.59 4.76192 18.782C5.18892 19 5.74892 19 6.86692 19H18.4729C19.5909 19 20.1499 19 20.5769 18.782C20.9538 18.5902 21.2601 18.2838 21.4519 17.907C21.6699 17.48 21.6699 16.921 21.6699 15.803V10.197C21.6699 9.079 21.6699 8.519 21.4519 8.092C21.2599 7.71554 20.9536 7.40957 20.5769 7.218C20.1499 7 19.5899 7 18.4699 7H15.1799M10.1589 7H10.2219M10.1589 7C10.0529 7 9.99392 7 9.94692 6.994C9.80807 6.97851 9.67401 6.9341 9.55338 6.86362C9.43275 6.79315 9.32822 6.69819 9.24654 6.58484C9.16485 6.4715 9.10782 6.3423 9.07913 6.20557C9.05043 6.06884 9.0507 5.92762 9.07992 5.791C9.10273 5.70418 9.12942 5.61843 9.15992 5.534L9.16092 5.528C9.21292 5.374 9.23792 5.298 9.26692 5.229C9.40935 4.8879 9.64352 4.59295 9.94343 4.37688C10.2433 4.16081 10.5973 4.03209 10.9659 4.005C11.0379 4 11.1189 4 11.2799 4H14.0579C14.2199 4 14.3009 4 14.3749 4.005C14.7434 4.03227 15.0971 4.16107 15.3968 4.37713C15.6966 4.59318 15.9306 4.88804 16.0729 5.229C16.1019 5.297 16.1269 5.374 16.1789 5.529C16.2249 5.667 16.2489 5.736 16.2589 5.791C16.2881 5.92754 16.2884 6.06869 16.2598 6.20536C16.2312 6.34203 16.1742 6.47118 16.0927 6.58451C16.0111 6.69784 15.9067 6.79282 15.7861 6.86335C15.6656 6.93387 15.5317 6.97838 15.3929 6.994C15.3221 6.99978 15.251 7.00179 15.1799 7M15.1799 7H15.1179H10.2199M12.6699 16C11.8743 16 11.1112 15.6839 10.5486 15.1213C9.98599 14.5587 9.66992 13.7956 9.66992 13C9.66992 12.2044 9.98599 11.4413 10.5486 10.8787C11.1112 10.3161 11.8743 10 12.6699 10C13.4656 10 14.2286 10.3161 14.7912 10.8787C15.3539 11.4413 15.6699 12.2044 15.6699 13C15.6699 13.7956 15.3539 14.5587 14.7912 15.1213C14.2286 15.6839 13.4656 16 12.6699 16Z" stroke="white" stroke-width="2" stroke-linecap="round" stroke-linejoin="round"/>
</svg>
