<svg width="25" height="24" viewBox="0 0 25 24" fill="none" xmlns="http://www.w3.org/2000/svg">
<path d="M12.5 20.3249C12.2667 20.3249 12.0293 20.2832 11.788 20.1999C11.5467 20.1166 11.334 19.9832 11.15 19.7999L9.425 18.2249C7.65833 16.6082 6.06233 15.0042 4.637 13.4129C3.21167 11.8216 2.49933 10.0672 2.5 8.1499C2.5 6.58324 3.025 5.2749 4.075 4.2249C5.125 3.1749 6.43333 2.6499 8 2.6499C8.88333 2.6499 9.71667 2.83724 10.5 3.2119C11.2833 3.58657 11.95 4.09924 12.5 4.7499C13.05 4.0999 13.7167 3.58757 14.5 3.2129C15.2833 2.83824 16.1167 2.65057 17 2.6499C18.5667 2.6499 19.875 3.1749 20.925 4.2249C21.975 5.2749 22.5 6.58324 22.5 8.1499C22.5 10.0666 21.7917 11.8249 20.375 13.4249C18.9583 15.0249 17.35 16.6332 15.55 18.2499L13.85 19.7999C13.6667 19.9832 13.4543 20.1166 13.213 20.1999C12.9717 20.2832 12.734 20.3249 12.5 20.3249Z" fill="#F64C4C"/>
</svg>
