<svg width="25" height="24" viewBox="0 0 25 24" fill="none" xmlns="http://www.w3.org/2000/svg">
<path d="M12.5 20.3249C12.2667 20.3249 12.0293 20.2832 11.788 20.1999C11.5467 20.1166 11.334 19.9832 11.15 19.7999L9.425 18.2249C7.65833 16.6082 6.06233 15.0042 4.637 13.4129C3.21167 11.8216 2.49933 10.0672 2.5 8.1499C2.5 6.58324 3.025 5.2749 4.075 4.2249C5.125 3.1749 6.43333 2.6499 8 2.6499C8.88333 2.6499 9.71667 2.83724 10.5 3.2119C11.2833 3.58657 11.95 4.09924 12.5 4.7499C13.05 4.0999 13.7167 3.58757 14.5 3.2129C15.2833 2.83824 16.1167 2.65057 17 2.6499C18.5667 2.6499 19.875 3.1749 20.925 4.2249C21.975 5.2749 22.5 6.58324 22.5 8.1499C22.5 10.0666 21.7917 11.8249 20.375 13.4249C18.9583 15.0249 17.35 16.6332 15.55 18.2499L13.85 19.7999C13.6667 19.9832 13.4543 20.1166 13.213 20.1999C12.9717 20.2832 12.734 20.3249 12.5 20.3249ZM11.55 6.7499C11.0667 6.06657 10.55 5.54557 10 5.1869C9.45 4.82824 8.78333 4.64924 8 4.6499C7 4.6499 6.16667 4.98324 5.5 5.6499C4.83333 6.31657 4.5 7.1499 4.5 8.1499C4.5 9.01657 4.80833 9.93757 5.425 10.9129C6.04167 11.8882 6.77933 12.8339 7.638 13.7499C8.49667 14.6659 9.38 15.5242 10.288 16.3249C11.196 17.1256 11.9333 17.7839 12.5 18.2999C13.0667 17.7832 13.8043 17.1249 14.713 16.3249C15.6217 15.5249 16.505 14.6666 17.363 13.7499C18.221 12.8332 18.9583 11.8876 19.575 10.9129C20.1917 9.93824 20.5 9.01724 20.5 8.1499C20.5 7.1499 20.1667 6.31657 19.5 5.6499C18.8333 4.98324 18 4.6499 17 4.6499C16.2167 4.6499 15.55 4.82924 15 5.1879C14.45 5.54657 13.9333 6.06724 13.45 6.7499C13.3333 6.91657 13.1917 7.04157 13.025 7.1249C12.8583 7.20824 12.6833 7.2499 12.5 7.2499C12.3167 7.2499 12.1417 7.20824 11.975 7.1249C11.8083 7.04157 11.6667 6.91657 11.55 6.7499Z" fill="#B3AFAD"/>
</svg>
