<svg width="25" height="24" viewBox="0 0 25 24" fill="none" xmlns="http://www.w3.org/2000/svg">
<path d="M9.53613 9.07361C9.70693 8.54732 10.0198 8.07896 10.4404 7.71948C10.8611 7.36001 11.3734 7.12378 11.9199 7.03708C12.4664 6.95038 13.0259 7.0164 13.5371 7.22803C14.0484 7.43966 14.4911 7.78875 14.8164 8.23633C15.1417 8.68391 15.3365 9.21256 15.38 9.76416C15.4235 10.3158 15.3135 10.8688 15.0623 11.3618C14.8112 11.8548 14.429 12.2685 13.9573 12.5576C13.4855 12.8467 12.943 12.9998 12.3896 12.9998V14.0002M12.3896 21C7.41909 21 3.38965 16.9706 3.38965 12C3.38965 7.02944 7.41909 3 12.3896 3C17.3602 3 21.3896 7.02944 21.3896 12C21.3896 16.9706 17.3602 21 12.3896 21ZM12.4395 17V17.1L12.3398 17.1002V17H12.4395Z" stroke="#363533" stroke-width="2" stroke-linecap="round" stroke-linejoin="round"/>
</svg>
