<svg width="25" height="24" viewBox="0 0 25 24" fill="none" xmlns="http://www.w3.org/2000/svg">
<path d="M19.9346 9.74982C19.9347 8.2403 19.501 6.76254 18.6851 5.49252C17.8692 4.2225 16.7055 3.21374 15.3325 2.58637C13.9595 1.959 12.4351 1.73946 10.9409 1.95388C9.44672 2.16831 8.04561 2.80767 6.90447 3.79583C5.76333 4.78399 4.93024 6.0793 4.50441 7.52751C4.07857 8.97573 4.07795 10.5158 4.5026 11.9644C4.92725 13.4129 5.75928 14.7089 6.89961 15.698C8.03995 16.6871 9.44053 17.3276 10.9346 17.5433V21.7498C10.9346 22.0482 11.0531 22.3343 11.2641 22.5453C11.4751 22.7563 11.7612 22.8748 12.0596 22.8748C12.3579 22.8748 12.6441 22.7563 12.8551 22.5453C13.066 22.3343 13.1846 22.0482 13.1846 21.7498V17.5433C15.0577 17.2705 16.7703 16.3332 18.0095 14.9024C19.2488 13.4715 19.932 11.6427 19.9346 9.74982ZM12.0596 15.3748C10.9471 15.3748 9.85951 15.0449 8.93449 14.4268C8.00946 13.8088 7.28849 12.9302 6.86275 11.9024C6.43701 10.8746 6.32561 9.74358 6.54265 8.65244C6.7597 7.56129 7.29542 6.55901 8.08209 5.77234C8.86876 4.98567 9.87104 4.44994 10.9622 4.2329C12.0533 4.01586 13.1843 4.12725 14.2122 4.553C15.24 4.97874 16.1185 5.69971 16.7366 6.62474C17.3547 7.54976 17.6846 8.6373 17.6846 9.74982C17.6828 11.2411 17.0896 12.6709 16.0351 13.7254C14.9806 14.7799 13.5509 15.3731 12.0596 15.3748Z" fill="#363533"/>
</svg>
