<?xml version="1.0" encoding="UTF-8"?>
<svg id="_圖層_1" data-name="圖層_1" xmlns="http://www.w3.org/2000/svg" version="1.1" viewBox="0 0 20 20">
  <!-- Generator: Adobe Illustrator 29.8.2, SVG Export Plug-In . SVG Version: 2.1.1 Build 3)  -->
  <defs>
    <style>
      .st0 {
        fill: #726e68;
      }
    </style>
  </defs>
  <path class="st0" d="M10,16.41c1.69-1.56,2.95-2.97,3.77-4.24.82-1.27,1.23-2.4,1.23-3.39,0-1.51-.48-2.75-1.45-3.72s-2.15-1.45-3.55-1.45c-1.4,0-2.59.48-3.55,1.45-.96.97-1.45,2.21-1.45,3.72,0,.99.41,2.11,1.23,3.39.82,1.27,2.08,2.68,3.77,4.24ZM10,18.05c-.19,0-.39-.03-.58-.1-.19-.07-.37-.17-.52-.31-.9-.83-1.7-1.65-2.4-2.44-.69-.79-1.27-1.56-1.74-2.3s-.82-1.46-1.06-2.15c-.24-.69-.37-1.34-.37-1.97,0-2.08.67-3.74,2.01-4.98,1.34-1.24,2.89-1.85,4.66-1.85s3.32.62,4.66,1.85c1.34,1.24,2.01,2.9,2.01,4.98,0,.62-.12,1.28-.36,1.97-.24.69-.6,1.4-1.06,2.15-.47.74-1.05,1.51-1.74,2.3-.69.79-1.49,1.6-2.4,2.44-.15.14-.33.24-.52.31-.19.07-.39.1-.58.1ZM10,10.28c.46,0,.85-.16,1.18-.49.33-.33.49-.72.49-1.18,0-.46-.16-.85-.49-1.18-.33-.33-.72-.49-1.18-.49-.46,0-.85.16-1.18.49-.33.33-.49.72-.49,1.18,0,.46.16.85.49,1.18.33.33.72.49,1.18.49Z"/>
</svg>