<svg width="20" height="20" viewBox="0 0 20 20" fill="none" xmlns="http://www.w3.org/2000/svg">
<circle cx="10" cy="10" r="10" fill="#FCDEAC"/>
<path d="M8.25033 15.8337C8.09562 15.8337 7.94724 15.7722 7.83785 15.6628C7.72845 15.5534 7.66699 15.405 7.66699 15.2503V13.5003H5.33366C5.02424 13.5003 4.72749 13.3774 4.5087 13.1586C4.28991 12.9398 4.16699 12.6431 4.16699 12.3337V5.33366C4.16699 5.02424 4.28991 4.72749 4.5087 4.5087C4.72749 4.28991 5.02424 4.16699 5.33366 4.16699H14.667C14.9764 4.16699 15.2732 4.28991 15.492 4.5087C15.7107 4.72749 15.8337 5.02424 15.8337 5.33366V12.3337C15.8337 12.6431 15.7107 12.9398 15.492 13.1586C15.2732 13.3774 14.9764 13.5003 14.667 13.5003H11.1087L8.95033 15.6645C8.83366 15.7753 8.68783 15.8337 8.54199 15.8337H8.25033ZM8.83366 12.3337V14.1303L10.6303 12.3337H14.667V5.33366H5.33366V12.3337H8.83366Z" fill="#F4902B"/>
</svg>
