<?xml version="1.0" encoding="UTF-8"?>
<svg id="_圖層_1" data-name="圖層_1" xmlns="http://www.w3.org/2000/svg" version="1.1" viewBox="0 0 16 16">
  <!-- Generator: Adobe Illustrator 29.8.2, SVG Export Plug-In . SVG Version: 2.1.1 Build 3)  -->
  <defs>
    <style>
      .st0 {
        fill: #b3afad;
        fill-rule: evenodd;
      }
    </style>
  </defs>
  <path class="st0" d="M7.28,1.85c.07-.13.18-.23.3-.3.13-.07.27-.11.42-.11s.29.04.42.11c.13.07.23.18.3.3l1.86,3.2,3.62.78c.14.03.27.1.38.2s.19.22.23.36c.05.14.05.29.02.43s-.1.27-.19.38l-2.47,2.76.37,3.68c.01.15,0,.29-.07.42-.06.13-.15.25-.27.33-.12.09-.26.14-.4.15-.14.02-.29,0-.42-.07l-3.39-1.49-3.39,1.49c-.13.06-.28.08-.42.07-.14-.02-.28-.07-.4-.15-.12-.09-.21-.2-.27-.33-.06-.13-.08-.28-.07-.42l.37-3.68-2.47-2.76c-.1-.11-.16-.24-.19-.38-.03-.14-.02-.29.02-.43.05-.14.13-.26.23-.36.11-.1.24-.17.38-.2l3.62-.78,1.86-3.2ZM8,3.26l-1.54,2.65c-.06.1-.14.19-.23.25-.09.07-.2.12-.31.14l-2.99.65,2.04,2.28c.16.17.23.41.21.64l-.31,3.05,2.8-1.24c.11-.05.22-.07.34-.07s.23.02.34.07l2.8,1.24-.31-3.05c-.01-.12,0-.23.04-.34s.09-.21.17-.3l2.04-2.28-2.99-.65c-.11-.02-.22-.07-.31-.14-.09-.07-.17-.15-.23-.25l-1.54-2.65Z"/>
</svg>