<svg width="225" height="173" viewBox="0 0 225 173" fill="none" xmlns="http://www.w3.org/2000/svg">
<rect x="36.457" y="75.0634" width="24.8585" height="46.1955" rx="12.4293" transform="rotate(-52.3165 36.457 75.0634)" fill="#7D946D"/>
<path d="M2.2308 20.9761L0.301341 21.8469C-0.0177611 21.992 0.0193438 22.4571 0.360709 22.5465L2.40148 23.0786C2.5499 23.1158 2.66121 23.2423 2.67606 23.3949L2.93208 25.6424C2.97289 25.9848 3.41815 26.0964 3.60739 25.8062L4.88009 23.9009C4.96543 23.7744 5.11756 23.7112 5.26598 23.7447L7.42548 24.2061C7.76314 24.2768 8.00803 23.8898 7.79653 23.6144L6.34573 21.7315C6.25668 21.6162 6.24184 21.4562 6.31234 21.3259L7.34385 19.4244C7.51083 19.1118 7.19172 18.762 6.86891 18.9072L4.8504 19.8002C4.7094 19.8635 4.54243 19.83 4.43483 19.7221L2.85787 18.1108C2.61298 17.8615 2.18998 18.0588 2.22338 18.4085L2.44601 20.604C2.46085 20.764 2.37551 20.9166 2.22709 20.9799L2.2308 20.9761Z" fill="#A5C68F"/>
<path d="M17.4792 32.88L14.3327 34.2978C13.8132 34.5322 13.8763 35.295 14.4291 35.4402L17.7612 36.3072C18.0023 36.3705 18.1805 36.5751 18.2101 36.8244L18.6257 40.4898C18.6888 41.0516 19.416 41.2265 19.7277 40.7577L21.8056 37.6505C21.9429 37.4459 22.1915 37.3417 22.4327 37.3938L25.9539 38.1454C26.5068 38.2645 26.9038 37.6282 26.5587 37.1817L24.1914 34.1117C24.043 33.9219 24.0245 33.6615 24.1395 33.4494L25.8204 30.3459C26.0949 29.8361 25.5717 29.2668 25.0449 29.5012L21.7574 30.9562C21.5273 31.0567 21.2564 31.0046 21.0821 30.8259L18.5107 28.1988C18.11 27.7895 17.4198 28.1132 17.4755 28.6863L17.8391 32.266C17.8651 32.5265 17.7241 32.7721 17.4866 32.88L17.4792 32.88Z" fill="#A5C68F"/>
<path d="M25.4479 13.7091L22.3014 15.1269C21.782 15.3613 21.845 16.1241 22.3979 16.2693L25.7299 17.1363C25.9711 17.1996 26.1492 17.4042 26.1789 17.6535L26.5945 21.3189C26.6575 21.8807 27.3848 22.0556 27.6965 21.5868L29.7744 18.4796C29.9116 18.275 30.1602 18.1708 30.4014 18.2229L33.9227 18.9745C34.4755 19.0936 34.8726 18.4573 34.5275 18.0108L32.1602 14.9408C32.0118 14.751 31.9932 14.4906 32.1082 14.2785L33.7891 11.175C34.0637 10.6652 33.5405 10.0959 33.0136 10.3303L29.7261 11.7853C29.4961 11.8858 29.2252 11.8337 29.0508 11.655L26.4794 9.02792C26.0787 8.6186 25.3885 8.94233 25.4442 9.51539L25.8078 13.0951C25.8338 13.3556 25.6928 13.6012 25.4553 13.7091L25.4479 13.7091Z" fill="#A5C68F"/>
<path d="M11.7119 3.40481L9.90115 4.21974C9.6006 4.3537 9.63771 4.7928 9.95681 4.87466L11.8714 5.3733C12.0124 5.41051 12.1126 5.52958 12.1312 5.67099L12.3686 7.78088C12.4057 8.10461 12.8213 8.20509 13.0031 7.93716L14.1979 6.15101C14.2758 6.03194 14.4205 5.97612 14.5578 6.00589L16.5837 6.43754C16.8991 6.50452 17.1292 6.13985 16.9325 5.88309L15.5708 4.11555C15.4854 4.00764 15.4743 3.85879 15.5411 3.73599L16.5058 1.94984C16.6654 1.65587 16.3648 1.32841 16.0606 1.46237L14.1682 2.29963C14.0346 2.35917 13.8825 2.3294 13.7786 2.22521L12.3018 0.714424C12.0718 0.479992 11.6748 0.666049 11.7082 0.993509L11.9159 3.0513C11.9308 3.20015 11.8492 3.34155 11.7119 3.40481Z" fill="#A5C68F"/>
<path d="M28.9333 45.5033C27.8073 43.827 28.2534 41.5554 29.9296 40.4294C31.6058 39.3034 33.8774 39.7495 35.0034 41.4257L54.032 69.7529C55.158 71.4291 54.7119 73.7007 53.0357 74.8267C51.3595 75.9527 49.0878 75.5067 47.9619 73.8304L28.9333 45.5033Z" fill="#8DB375"/>
<path d="M202.188 68.7231C235.677 132.496 171.451 152.196 131.934 151.686C88.8264 151.129 34.3708 140.209 63.0462 70.7256C91.7217 1.2425 108.618 4.07811 133.836 4.40374C159.054 4.72937 168.699 4.94989 202.188 68.7231Z" fill="#A5C68F"/>
<rect x="89.8867" y="29.5097" width="34.8019" height="34.8019" rx="17.401" transform="rotate(0.739821 89.8867 29.5097)" fill="white"/>
<circle cx="107.061" cy="47.1339" r="13.6722" transform="rotate(0.739821 107.061 47.1339)" fill="#232323"/>
<rect x="133.387" y="30.0712" width="34.8019" height="34.8019" rx="17.401" transform="rotate(0.739821 133.387 30.0712)" fill="white"/>
<circle cx="150.561" cy="47.6955" r="13.6722" transform="rotate(0.739821 150.561 47.6955)" fill="#232323"/>
<ellipse cx="129.376" cy="66.5606" rx="3.72878" ry="2.48585" transform="rotate(0.739821 129.376 66.5606)" fill="white"/>
<rect x="101.723" y="134.06" width="21.5078" height="37.6386" rx="10.7539" transform="rotate(0.739821 101.723 134.06)" fill="#A5C68F"/>
<rect x="133.98" y="134.477" width="21.5078" height="37.6386" rx="10.7539" transform="rotate(0.739821 133.98 134.477)" fill="#A5C68F"/>
<path d="M130.363 80.0639C130.91 81.7922 132.79 85.1338 135.94 84.6735C139.089 84.2132 142.355 80.5794 143.594 78.8201" stroke="white" stroke-width="4.9717" stroke-linecap="round"/>
<path d="M144.141 78.497C144.687 80.2253 146.568 83.5669 149.717 83.1066C152.866 82.6463 156.132 79.0125 157.371 77.2532" stroke="white" stroke-width="4.9717" stroke-linecap="round"/>
<rect x="176.457" y="73.4667" width="24.8585" height="42.3765" rx="12.4293" transform="rotate(-50.1197 176.457 73.4667)" fill="#7D946D"/>
</svg>
